<svg xmlns="http://www.w3.org/2000/svg" width="720" height="560" viewBox="0 0 720 560" role="img" aria-label="서울국제고등학교 학교분석 - 우리학교과외 분석팀">
  <defs>
    <filter id="softShadow" x="-20%" y="-20%" width="140%" height="140%">
      <feDropShadow dx="0" dy="14" stdDeviation="18" flood-color="#17224a" flood-opacity=".13"/>
    </filter>
    <filter id="textShadow" x="-10%" y="-10%" width="120%" height="120%">
      <feDropShadow dx="7" dy="7" stdDeviation="0" flood-color="#111" flood-opacity=".18"/>
    </filter>
    <clipPath id="photoClip">
      <path d="M452 300c0-66 54-120 120-120h68v274H452z"/>
    </clipPath>
  </defs>

  <rect width="720" height="560" fill="#f7f9fd"/>
  <g filter="url(#softShadow)">
    <rect x="30" y="24" width="660" height="500" fill="#fff" stroke="#c9ced9" stroke-width="2"/>
  </g>

  <g transform="translate(65 38)">
    <circle cx="28" cy="28" r="25" fill="#fff" stroke="#111" stroke-width="2.4"/>
    <circle cx="28" cy="28" r="16" fill="#fff" stroke="#111" stroke-width="1.5"/>
    <rect x="18" y="21" width="20" height="18" rx="2" fill="#2446d8"/>
    <path d="M23 37V22M28 37V19M33 37V22" stroke="#fff" stroke-width="3" stroke-linecap="round"/>
    <text x="28" y="7" text-anchor="middle" font-family="Pretendard, 'Noto Sans KR', Arial, sans-serif" font-size="6.5" font-weight="900" fill="#111">우리학교 과외</text>
  </g>
  <text x="65" y="110" font-family="Pretendard, 'Noto Sans KR', Arial, sans-serif" font-size="24" font-weight="900" fill="#111">우리학교 과외</text>

  <g font-family="Pretendard, 'Noto Sans KR', Arial, sans-serif" filter="url(#textShadow)">
    <text x="65" y="214" font-size="74" font-weight="1000" fill="#263f97" letter-spacing="-2">서울</text>
    <text x="65" y="292" font-size="65" font-weight="1000" fill="#263f97" letter-spacing="-2">국제고등학교</text>
    <text x="65" y="388" font-size="74" font-weight="1000" fill="#050505" letter-spacing="-2">학교분석</text>
  </g>

  <text x="65" y="466" font-family="Pretendard, 'Noto Sans KR', Arial, sans-serif" font-size="22" font-weight="900" fill="#111827">우리학교과외 분석팀</text>

  <path d="M582 30h82v128c0 45-37 82-82 82z" fill="#263f97"/>

  <g clip-path="url(#photoClip)">
    <rect x="430" y="178" width="230" height="276" fill="#d7dbe3"/>
    <rect x="430" y="178" width="230" height="276" fill="#000" opacity=".08"/>
    <ellipse cx="560" cy="300" rx="92" ry="64" fill="#7b8391" opacity=".45"/>
    <rect x="468" y="286" width="150" height="18" rx="9" fill="#4d5563" opacity=".42"/>
    <rect x="488" y="324" width="110" height="12" rx="6" fill="#596273" opacity=".45"/>
    <path d="M456 394c47-35 94-40 145-16 33 16 57 14 84-4v86H456z" fill="#454b56" opacity=".62"/>
    <path d="M470 370c38-16 72-14 105 8" fill="none" stroke="#2b3038" stroke-width="13" stroke-linecap="round" opacity=".55"/>
    <path d="M532 398c35-14 64-13 94 3" fill="none" stroke="#2b3038" stroke-width="12" stroke-linecap="round" opacity=".5"/>
  </g>
  <path d="M638 236h46v228h-46z" fill="#263f97"/>
  <path d="M452 454h232v26H452z" fill="#263f97" opacity=".92"/>
</svg>
